<svg width="80" height="80" viewBox="0 0 80 80" fill="none" xmlns="http://www.w3.org/2000/svg">
<path d="M15.9815 78L14.1918 71.4545H14.9972L16.3651 76.7855H16.429L17.8224 71.4545H18.7173L20.1108 76.7855H20.1747L21.5426 71.4545H22.348L20.5582 78H19.7401L18.2955 72.7841H18.2443L16.7997 78H15.9815ZM24.8345 78.1023C24.3615 78.1023 23.9535 77.9979 23.6104 77.7891C23.2695 77.5781 23.0064 77.2841 22.821 76.907C22.6378 76.5277 22.5462 76.0866 22.5462 75.5838C22.5462 75.081 22.6378 74.6378 22.821 74.2543C23.0064 73.8686 23.2642 73.5682 23.5945 73.353C23.9268 73.1357 24.3146 73.027 24.7578 73.027C25.0135 73.027 25.266 73.0696 25.5153 73.1548C25.7646 73.2401 25.9915 73.3786 26.196 73.5703C26.4006 73.7599 26.5636 74.0114 26.685 74.3246C26.8065 74.6378 26.8672 75.0234 26.8672 75.4815V75.8011H23.0831V75.1491H26.1001C26.1001 74.8722 26.0447 74.625 25.9339 74.4077C25.8253 74.1903 25.6697 74.0188 25.4673 73.8931C25.267 73.7674 25.0305 73.7045 24.7578 73.7045C24.4574 73.7045 24.1974 73.7791 23.978 73.9283C23.7607 74.0753 23.5934 74.267 23.4762 74.5036C23.359 74.7401 23.3004 74.9936 23.3004 75.2642V75.6989C23.3004 76.0696 23.3643 76.3839 23.4922 76.6417C23.6222 76.8974 23.8022 77.0923 24.0323 77.2266C24.2624 77.3587 24.5298 77.4247 24.8345 77.4247C25.0327 77.4247 25.2116 77.397 25.3714 77.3416C25.5334 77.2841 25.6729 77.1989 25.7901 77.0859C25.9073 76.9709 25.9979 76.8281 26.0618 76.6577L26.7905 76.8622C26.7138 77.1094 26.5849 77.3267 26.4038 77.5142C26.2227 77.6996 25.9989 77.8445 25.7326 77.9489C25.4663 78.0511 25.1669 78.1023 24.8345 78.1023ZM29.4592 78.1151C29.1481 78.1151 28.8658 78.0565 28.6122 77.9393C28.3587 77.82 28.1573 77.6484 28.0082 77.4247C27.859 77.1989 27.7844 76.9261 27.7844 76.6065C27.7844 76.3253 27.8398 76.0973 27.9506 75.9226C28.0614 75.7457 28.2095 75.6072 28.3949 75.5071C28.5803 75.407 28.7848 75.3324 29.0085 75.2834C29.2344 75.2322 29.4613 75.1918 29.6893 75.1619C29.9876 75.1236 30.2294 75.0948 30.4148 75.0756C30.6023 75.0543 30.7386 75.0192 30.8239 74.9702C30.9112 74.9212 30.9549 74.8359 30.9549 74.7145V74.6889C30.9549 74.3736 30.8686 74.1286 30.696 73.9538C30.5256 73.7791 30.2667 73.6918 29.9194 73.6918C29.5593 73.6918 29.277 73.7706 29.0724 73.9283C28.8679 74.0859 28.7241 74.2543 28.641 74.4332L27.9251 74.1776C28.0529 73.8793 28.2234 73.647 28.4364 73.4808C28.6516 73.3125 28.886 73.1953 29.1396 73.1293C29.3952 73.0611 29.6467 73.027 29.8938 73.027C30.0515 73.027 30.2326 73.0462 30.4371 73.0845C30.6438 73.1207 30.843 73.1964 31.0348 73.3114C31.2287 73.4265 31.3896 73.6001 31.5174 73.8324C31.6452 74.0646 31.7092 74.3757 31.7092 74.7656V78H30.9549V77.3352H30.9165C30.8654 77.4418 30.7802 77.5558 30.6609 77.6772C30.5415 77.7987 30.3828 77.902 30.1847 77.9872C29.9865 78.0724 29.7447 78.1151 29.4592 78.1151ZM29.5742 77.4375C29.8725 77.4375 30.1239 77.3789 30.3285 77.2617C30.5352 77.1445 30.6907 76.9933 30.7951 76.8079C30.9016 76.6225 30.9549 76.4276 30.9549 76.223V75.5327C30.9229 75.571 30.8526 75.6062 30.744 75.6381C30.6374 75.668 30.5138 75.6946 30.3732 75.718C30.2347 75.7393 30.0994 75.7585 29.9673 75.7756C29.8374 75.7905 29.7319 75.8033 29.6509 75.8139C29.4549 75.8395 29.2717 75.881 29.1012 75.9386C28.9329 75.994 28.7965 76.0781 28.6921 76.1911C28.5898 76.3018 28.5387 76.4531 28.5387 76.6449C28.5387 76.907 28.6357 77.1051 28.8295 77.2393C29.0256 77.3714 29.2738 77.4375 29.5742 77.4375ZM35.2208 73.0909V73.7301H32.6768V73.0909H35.2208ZM33.4182 71.9148H34.1725V76.5938C34.1725 76.8068 34.2034 76.9666 34.2652 77.0732C34.3291 77.1776 34.4101 77.2479 34.5081 77.2841C34.6082 77.3182 34.7137 77.3352 34.8245 77.3352C34.9076 77.3352 34.9758 77.331 35.029 77.3224C35.0823 77.3118 35.1249 77.3033 35.1569 77.2969L35.3103 77.9744C35.2591 77.9936 35.1878 78.0128 35.0961 78.032C35.0045 78.0533 34.8884 78.0639 34.7478 78.0639C34.5347 78.0639 34.3259 78.0181 34.1214 77.9265C33.9189 77.8349 33.7506 77.6953 33.6164 77.5078C33.4843 77.3203 33.4182 77.0838 33.4182 76.7983V71.9148ZM37.2151 75.0469V78H36.4608V71.4545H37.2151V73.858H37.279C37.3941 73.6044 37.5667 73.4031 37.7968 73.2539C38.029 73.1026 38.338 73.027 38.7236 73.027C39.0581 73.027 39.3511 73.0941 39.6025 73.2283C39.854 73.3604 40.0489 73.5639 40.1874 73.8388C40.328 74.1115 40.3983 74.4588 40.3983 74.8807V78H39.6441V74.9318C39.6441 74.5419 39.5429 74.2404 39.3405 74.0273C39.1402 73.8121 38.8621 73.7045 38.5063 73.7045C38.2591 73.7045 38.0376 73.7567 37.8415 73.8612C37.6476 73.9656 37.4942 74.1179 37.3813 74.3182C37.2705 74.5185 37.2151 74.7614 37.2151 75.0469ZM43.8365 78.1023C43.3635 78.1023 42.9554 77.9979 42.6124 77.7891C42.2715 77.5781 42.0083 77.2841 41.823 76.907C41.6397 76.5277 41.5481 76.0866 41.5481 75.5838C41.5481 75.081 41.6397 74.6378 41.823 74.2543C42.0083 73.8686 42.2662 73.5682 42.5964 73.353C42.9288 73.1357 43.3166 73.027 43.7598 73.027C44.0154 73.027 44.2679 73.0696 44.5172 73.1548C44.7665 73.2401 44.9934 73.3786 45.198 73.5703C45.4025 73.7599 45.5655 74.0114 45.687 74.3246C45.8084 74.6378 45.8691 75.0234 45.8691 75.4815V75.8011H42.085V75.1491H45.1021C45.1021 74.8722 45.0467 74.625 44.9359 74.4077C44.8272 74.1903 44.6717 74.0188 44.4693 73.8931C44.269 73.7674 44.0325 73.7045 43.7598 73.7045C43.4593 73.7045 43.1994 73.7791 42.9799 73.9283C42.7626 74.0753 42.5953 74.267 42.4782 74.5036C42.361 74.7401 42.3024 74.9936 42.3024 75.2642V75.6989C42.3024 76.0696 42.3663 76.3839 42.4941 76.6417C42.6241 76.8974 42.8042 77.0923 43.0343 77.2266C43.2644 77.3587 43.5318 77.4247 43.8365 77.4247C44.0346 77.4247 44.2136 77.397 44.3734 77.3416C44.5353 77.2841 44.6749 77.1989 44.7921 77.0859C44.9093 76.9709 44.9998 76.8281 45.0637 76.6577L45.7924 76.8622C45.7157 77.1094 45.5868 77.3267 45.4057 77.5142C45.2246 77.6996 45.0009 77.8445 44.7346 77.9489C44.4682 78.0511 44.1689 78.1023 43.8365 78.1023ZM47.0165 78V73.0909H47.7452V73.8324H47.7963C47.8858 73.5895 48.0478 73.3924 48.2821 73.2411C48.5165 73.0898 48.7807 73.0142 49.0748 73.0142C49.1301 73.0142 49.1994 73.0153 49.2825 73.0174C49.3656 73.0195 49.4284 73.0227 49.4711 73.027V73.794C49.4455 73.7876 49.3869 73.7781 49.2953 73.7653C49.2058 73.7504 49.111 73.7429 49.0108 73.7429C48.7722 73.7429 48.5591 73.793 48.3716 73.8931C48.1863 73.9911 48.0392 74.1275 47.9306 74.3022C47.824 74.4748 47.7708 74.6719 47.7708 74.8935V78H47.0165Z" fill="#1E1E1E"/>
<path d="M50.7359 78H49.9049L52.3083 71.4545H53.1265L55.5299 78H54.699L52.743 72.4901H52.6919L50.7359 78ZM51.0427 75.4432H54.3921V76.1463H51.0427V75.4432ZM56.4472 79.8409V73.0909H57.1759V73.8707H57.2654C57.3208 73.7855 57.3975 73.6768 57.4955 73.5447C57.5956 73.4105 57.7384 73.2912 57.9237 73.1868C58.1112 73.0803 58.3648 73.027 58.6844 73.027C59.0977 73.027 59.4621 73.1303 59.7774 73.337C60.0928 73.5437 60.3389 73.8366 60.5157 74.2159C60.6926 74.5952 60.781 75.0426 60.781 75.5582C60.781 76.0781 60.6926 76.5288 60.5157 76.9102C60.3389 77.2894 60.0938 77.5835 59.7806 77.7923C59.4674 77.9989 59.1063 78.1023 58.6972 78.1023C58.3818 78.1023 58.1294 78.0501 57.9397 77.9457C57.7501 77.8391 57.6041 77.7187 57.5019 77.5845C57.3996 77.4482 57.3208 77.3352 57.2654 77.2457H57.2014V79.8409H56.4472ZM57.1887 75.5455C57.1887 75.9162 57.243 76.2433 57.3517 76.5266C57.4603 76.8079 57.6191 77.0284 57.8279 77.1882C58.0367 77.3459 58.2923 77.4247 58.5949 77.4247C58.9102 77.4247 59.1734 77.3416 59.3843 77.1754C59.5974 77.0071 59.7572 76.7812 59.8637 76.4979C59.9724 76.2124 60.0267 75.8949 60.0267 75.5455C60.0267 75.2003 59.9735 74.8892 59.8669 74.6122C59.7625 74.3331 59.6038 74.1126 59.3907 73.9506C59.1798 73.7866 58.9145 73.7045 58.5949 73.7045C58.2881 73.7045 58.0303 73.7823 57.8215 73.9379C57.6127 74.0913 57.455 74.3065 57.3485 74.5835C57.2419 74.8583 57.1887 75.179 57.1887 75.5455ZM61.9316 79.8409V73.0909H62.6602V73.8707H62.7497C62.8051 73.7855 62.8818 73.6768 62.9798 73.5447C63.08 73.4105 63.2227 73.2912 63.4081 73.1868C63.5956 73.0803 63.8492 73.027 64.1688 73.027C64.5821 73.027 64.9465 73.1303 65.2618 73.337C65.5771 73.5437 65.8232 73.8366 66.0001 74.2159C66.1769 74.5952 66.2654 75.0426 66.2654 75.5582C66.2654 76.0781 66.1769 76.5288 66.0001 76.9102C65.8232 77.2894 65.5782 77.5835 65.265 77.7923C64.9518 77.9989 64.5906 78.1023 64.1816 78.1023C63.8662 78.1023 63.6137 78.0501 63.4241 77.9457C63.2345 77.8391 63.0885 77.7187 62.9862 77.5845C62.884 77.4482 62.8051 77.3352 62.7497 77.2457H62.6858V79.8409H61.9316ZM62.673 75.5455C62.673 75.9162 62.7274 76.2433 62.836 76.5266C62.9447 76.8079 63.1034 77.0284 63.3122 77.1882C63.521 77.3459 63.7767 77.4247 64.0793 77.4247C64.3946 77.4247 64.6578 77.3416 64.8687 77.1754C65.0818 77.0071 65.2416 76.7812 65.3481 76.4979C65.4568 76.2124 65.5111 75.8949 65.5111 75.5455C65.5111 75.2003 65.4578 74.8892 65.3513 74.6122C65.2469 74.3331 65.0882 74.1126 64.8751 73.9506C64.6642 73.7866 64.3989 73.7045 64.0793 73.7045C63.7725 73.7045 63.5146 73.7823 63.3058 73.9379C63.097 74.0913 62.9394 74.3065 62.8328 74.5835C62.7263 74.8583 62.673 75.179 62.673 75.5455Z" fill="#EC6645"/>
<path d="M30.5614 53.3333C30.5614 52.775 30.3396 52.2395 29.9448 51.8447C29.5499 51.4499 29.0145 51.2281 28.4561 51.2281C27.8978 51.2281 27.3623 51.4499 26.9675 51.8447C26.5727 52.2395 26.3508 52.775 26.3508 53.3333H30.5614ZM37.5789 33.6842V56.1403H41.7894V33.6842H37.5789ZM30.5614 56.1403V53.3333H26.3508V56.1403H30.5614ZM39.6842 35.7895H66.4182V31.5789H39.6842V35.7895ZM41.0203 3.50876H38.348V7.71929H41.0203V3.50876ZM12.9501 35.7895H39.6842V31.5789H12.9501V35.7895ZM9.50874 32.3481C9.50874 34.2484 11.0498 35.7895 12.9501 35.7895V31.5789C13.374 31.5789 13.7193 31.9242 13.7193 32.3481H9.50874ZM69.8596 32.3481C69.8596 16.421 56.9473 3.50876 41.0203 3.50876V7.71929C44.2546 7.71929 47.4572 8.35633 50.4453 9.59404C53.4334 10.8318 56.1485 12.6459 58.4355 14.9329C60.7225 17.2199 62.5366 19.9349 63.7743 22.923C65.0121 25.9111 65.6491 29.1138 65.6491 32.3481H69.8596ZM66.4182 35.7895C68.3186 35.7895 69.8596 34.2484 69.8596 32.3481H65.6491C65.6491 31.9242 65.9944 31.5789 66.4182 31.5789V35.7895ZM34.0701 59.6491C32.1333 59.6491 30.5614 58.0772 30.5614 56.1403H26.3508C26.3508 58.1876 27.1641 60.1511 28.6118 61.5987C30.0594 63.0464 32.0229 63.8596 34.0701 63.8596V59.6491ZM38.348 3.50876C22.421 3.50876 9.50874 16.421 9.50874 32.3481H13.7193C13.7193 25.8161 16.3141 19.5517 20.9329 14.9329C25.5517 10.3141 31.8161 7.71929 38.348 7.71929V3.50876ZM37.5789 56.1403C37.5789 58.0772 36.007 59.6491 34.0701 59.6491V63.8596C36.1174 63.8596 38.0809 63.0464 39.5285 61.5987C40.9762 60.1511 41.7894 58.1876 41.7894 56.1403H37.5789Z" fill="#EC6645"/>
<path opacity="0.5" d="M53.4807 33.6842C52.6919 26.0744 49.6631 5.61401 39.6842 5.61401C29.708 5.61401 26.6737 26.0744 25.8905 33.6842" stroke="#EC6645" stroke-width="1.5"/>
</svg>
