<svg width="32" height="32" viewBox="0 0 32 32" fill="none" xmlns="http://www.w3.org/2000/svg">
<g clip-path="url(#clip0_1_2)">
<path d="M11.6667 25.3333C11.6667 25.0681 11.5613 24.8138 11.3738 24.6262C11.1862 24.4387 10.9319 24.3333 10.6667 24.3333C10.4014 24.3333 10.1471 24.4387 9.95955 24.6262C9.77201 24.8138 9.66666 25.0681 9.66666 25.3333H11.6667ZM15 16V26.6667H17V16H15ZM11.6667 26.6667V25.3333H9.66666V26.6667H11.6667ZM16 17H28.6987V15H16V17ZM16.6347 1.66666H15.3653V3.66666H16.6347V1.66666ZM3.30132 17H16V15H3.30132V17ZM1.66666 15.3653C1.66666 16.268 2.39866 17 3.30132 17V15C3.50266 15 3.66666 15.164 3.66666 15.3653H1.66666ZM30.3333 15.3653C30.3333 7.79999 24.2 1.66666 16.6347 1.66666V3.66666C18.1709 3.66666 19.6922 3.96925 21.1115 4.55716C22.5309 5.14508 23.8205 6.0068 24.9069 7.09312C25.9932 8.17944 26.8549 9.46909 27.4428 10.8884C28.0307 12.3078 28.3333 13.829 28.3333 15.3653H30.3333ZM28.6987 17C29.6013 17 30.3333 16.268 30.3333 15.3653H28.3333C28.3333 15.164 28.4973 15 28.6987 15V17ZM13.3333 28.3333C12.4133 28.3333 11.6667 27.5867 11.6667 26.6667H9.66666C9.66666 27.6391 10.053 28.5718 10.7406 29.2594C11.4282 29.947 12.3609 30.3333 13.3333 30.3333V28.3333ZM15.3653 1.66666C7.79999 1.66666 1.66666 7.79999 1.66666 15.3653H3.66666C3.66666 12.2626 4.89919 9.28704 7.09312 7.09312C9.28704 4.89919 12.2626 3.66666 15.3653 3.66666V1.66666ZM15 26.6667C15 27.5867 14.2533 28.3333 13.3333 28.3333V30.3333C14.3058 30.3333 15.2384 29.947 15.926 29.2594C16.6137 28.5718 17 27.6391 17 26.6667H15Z" fill="#EC6645"/>
<path opacity="0.5" d="M22.5533 16C22.1787 12.3853 20.74 2.66666 16 2.66666C11.2613 2.66666 9.82 12.3853 9.448 16" stroke="#EC6645" stroke-width="1.5"/>
</g>
<defs>
<clipPath id="clip0_1_2">
<rect width="32" height="32" fill="white"/>
</clipPath>
</defs>
</svg>
